<svg xmlns="http://www.w3.org/2000/svg" width="1084.949" height="869.857" viewBox="0 0 1084.949 869.857"><path d="M689.623,869.858c-46.05,0-91.611-1.885-135.418-5.6-43.234-3.669-85.446-9.179-125.464-16.379a1086.416,1086.416,0,0,1-113.422-26.51c-17.723-5.21-35.065-10.879-51.542-16.852-16.509-5.984-32.574-12.425-47.748-19.143-15.217-6.736-29.917-13.92-43.692-21.352-13.834-7.463-27.082-15.362-39.376-23.48a424.832,424.832,0,0,1-34.8-25.528,347.517,347.517,0,0,1-29.959-27.5,287.121,287.121,0,0,1-24.861-29.382,243.222,243.222,0,0,1-19.5-31.187A215.5,215.5,0,0,1,9.968,594.034a202.491,202.491,0,0,1-9.4-77.794,223.047,223.047,0,0,1,7.611-43.251A265.54,265.54,0,0,1,24.392,430,332.433,332.433,0,0,1,48.8,387.533a424.426,424.426,0,0,1,32.181-41.661,540.558,540.558,0,0,1,39.539-40.587c14.283-13.248,29.922-26.45,46.481-39.24,16.524-12.764,34.359-25.422,53.008-37.623s38.538-24.222,59.118-35.733c20.64-11.543,42.447-22.838,64.814-33.571,22.491-10.791,46.074-21.266,70.093-31.135,24.2-9.945,49.423-19.51,74.957-28.43,25.786-9.008,52.5-17.571,79.4-25.451,27.2-7.968,55.27-15.438,83.436-22.2,28.513-6.847,57.8-13.132,87.053-18.68,29.688-5.63,60.053-10.638,90.253-14.885A1850.14,1850.14,0,0,1,1084.963,0l-104.451,236.2a961.447,961.447,0,0,0-119.458,9.363c-31.331,4.406-62.43,10.31-92.435,17.549a875.888,875.888,0,0,0-84.88,24.988,731.906,731.906,0,0,0-75.593,31.283,560.812,560.812,0,0,0-64.572,36.433,390.875,390.875,0,0,0-51.819,40.438,250.118,250.118,0,0,0-37.333,43.3,175.053,175.053,0,0,0-12.693,22.365,140.518,140.518,0,0,0-8.422,22.651,118.587,118.587,0,0,0-3.934,22.794,108.841,108.841,0,0,0,.771,22.794c3.352,23.864,14.642,46.207,33.557,66.407a197.741,197.741,0,0,0,32.7,27.666,289.965,289.965,0,0,0,41.941,23.543,410.119,410.119,0,0,0,50.155,19.1,547.5,547.5,0,0,0,57.34,14.327c40.959,8,85.411,12.392,132.122,13.053L700.32,869.825C696.729,869.847,693.131,869.858,689.623,869.858Z" transform="translate(-0.014 -0.001)" fill="#3949c6"/></svg>