<svg xmlns="http://www.w3.org/2000/svg" width="50.547" height="58.328" viewBox="0 0 50.547 58.328"><g transform="translate(-728.621 -1973.593)"><g transform="translate(728.651 1977.088)"><path d="M758.6,2042.854c-.144.328-.276.631-.409.932q-1.309,2.948-2.615,5.9a.278.278,0,0,1-.311.2c-1.223-.039-2.447-.044-3.669-.108-.994-.052-1.988-.144-2.976-.268-1.264-.16-2.53-.323-3.779-.568a32.114,32.114,0,0,1-9.478-3.242,15.105,15.105,0,0,1-4.073-3.137,9.515,9.515,0,0,1-1.882-3.1,6.694,6.694,0,0,1-.314-3.355,11.094,11.094,0,0,1,2.093-4.772,16.845,16.845,0,0,1,2.849-3.031,35.053,35.053,0,0,1,6.587-4.323,54.93,54.93,0,0,1,10.18-3.951,63.636,63.636,0,0,1,6.611-1.518c1.229-.213,2.461-.412,3.7-.58.96-.13,1.927-.219,2.893-.3q1.769-.141,3.541-.227c.75-.036,1.5-.022,2.254-.029a.54.54,0,0,1,.1.023c-.029.073-.052.139-.08.2q-1.864,4.215-3.726,8.432a.292.292,0,0,1-.3.2c-1.095.059-2.193.086-3.282.207a32.179,32.179,0,0,0-11.312,3.226,15.535,15.535,0,0,0-3.75,2.578,6.719,6.719,0,0,0-1.973,3.243,3.6,3.6,0,0,0,.4,2.8,6.475,6.475,0,0,0,2.238,2.146,15.2,15.2,0,0,0,5.238,1.938,29.685,29.685,0,0,0,4.993.479C758.422,2042.855,758.494,2042.854,758.6,2042.854Z" transform="translate(-729.005 -2017.375)" fill="#005699"/><path d="M1106.194,2132.631l.507-1.105c.351-.767.7-1.532,1.049-2.3a.2.2,0,0,1,.223-.143,30.914,30.914,0,0,1,4.978.438,17.7,17.7,0,0,1,4.929,1.592,7.334,7.334,0,0,1,2.536,1.991,3.825,3.825,0,0,1,.613,3.917,7.591,7.591,0,0,1-2.454,3.207,21.139,21.139,0,0,1-5.671,3.163,33.168,33.168,0,0,1-6.676,1.8,35.053,35.053,0,0,1-5.614.476c-.046,0-.092,0-.165-.008.136-.317.265-.62.4-.923.5-1.143,1-2.284,1.5-3.429a.253.253,0,0,1,.268-.176,17.509,17.509,0,0,0,5.19-.849,11.828,11.828,0,0,0,3.489-1.673,4.711,4.711,0,0,0,1.363-1.461,2.1,2.1,0,0,0-.406-2.717,5.285,5.285,0,0,0-1.763-1.066,10.064,10.064,0,0,0-2.886-.635C1107.139,2132.7,1106.677,2132.666,1106.194,2132.631Z" transform="translate(-1070.798 -2120.165)" fill="#005699"/></g><g transform="translate(728.621 1973.593)"><path d="M929.362,2487.27c-.1-.07-.169-.111-.231-.158a4.552,4.552,0,0,0-1.962-.972,4.839,4.839,0,0,0-3,.306,3.428,3.428,0,0,0-1.914,2.549,5.042,5.042,0,0,0,.129,2.639,3.167,3.167,0,0,0,2.609,2.287,4.732,4.732,0,0,0,2.667-.216,15.149,15.149,0,0,0,1.479-.81c.068-.038.129-.088.223-.154,0,.093.012.155.01.217-.016.692-.036,1.383-.049,2.075a.274.274,0,0,1-.167.261,6.571,6.571,0,0,1-3.427.816,6.373,6.373,0,0,1-3.22-.842,5.621,5.621,0,0,1-2.727-3.6,6.342,6.342,0,0,1,.025-3.274,5.608,5.608,0,0,1,2.148-3.125,6.588,6.588,0,0,1,4.33-1.2,7.591,7.591,0,0,1,2.621.531c.514.216.514.211.5.77s-.02,1.1-.03,1.656C929.375,2487.094,929.369,2487.159,929.362,2487.27Z" transform="translate(-904.333 -2443.314)"/><path d="M1144.912,2485.533h2.823v11.813h-2.823Z" transform="translate(-1111.681 -2444.667)"/><path d="M793.448,2485.51h2.766v11.818h-2.766Z" transform="translate(-788.273 -2444.646)"/><path d="M728.778,2685.39v-.441h39.886a.878.878,0,0,1,.709-.572.757.757,0,0,1,.844.572.79.79,0,0,1-1.443.617.332.332,0,0,0-.349-.179q-19.663,0-39.326,0Z" transform="translate(-728.765 -2627.634)"/><path d="M769.976,1974.16v.457H769.7q-19.664,0-39.327,0a.374.374,0,0,0-.369.184.713.713,0,0,1-.895.275.765.765,0,0,1,.129-1.462.721.721,0,0,1,.826.407.238.238,0,0,0,.263.145q3.5,0,7,0h32.647Z" transform="translate(-728.621 -1973.593)"/></g></g></svg>